<mxfile host="app.diagrams.net" modified="2023-09-17T22:55:31.737Z" agent="Mozilla/5.0 (Windows NT 10.0; Win64; x64; rv:109.0) Gecko/20100101 Firefox/117.0" etag="GkSYCMz_bVLi5kruRM_D" version="21.7.5" type="device">
  <diagram name="PÃ¡gina-1" id="NFbipyTKic4b51myt3zI">
    <mxGraphModel dx="2963" dy="1171" grid="1" gridSize="10" guides="1" tooltips="1" connect="1" arrows="1" fold="1" page="1" pageScale="1" pageWidth="827" pageHeight="1169" math="0" shadow="0">
      <root>
        <mxCell id="0" />
        <mxCell id="1" parent="0" />
        <mxCell id="wvRjYrKWpuAkCQhh6v5w-5" value="" style="shape=folder;fontStyle=1;spacingTop=10;tabWidth=40;tabHeight=14;tabPosition=left;html=1;whiteSpace=wrap;" parent="1" vertex="1">
          <mxGeometry x="285" y="447" width="266" height="280" as="geometry" />
        </mxCell>
        <mxCell id="wvRjYrKWpuAkCQhh6v5w-1" value="exceptions" style="shape=folder;fontStyle=1;spacingTop=10;tabWidth=40;tabHeight=14;tabPosition=left;html=1;whiteSpace=wrap;" parent="1" vertex="1">
          <mxGeometry x="301" y="477" width="70" height="50" as="geometry" />
        </mxCell>
        <mxCell id="5uKf5__XZ_AHMYdSUj16-4" style="edgeStyle=orthogonalEdgeStyle;rounded=0;orthogonalLoop=1;jettySize=auto;html=1;endArrow=open;endFill=0;dashed=1;" edge="1" parent="1" source="wvRjYrKWpuAkCQhh6v5w-2" target="wvRjYrKWpuAkCQhh6v5w-1">
          <mxGeometry relative="1" as="geometry" />
        </mxCell>
        <mxCell id="wvRjYrKWpuAkCQhh6v5w-2" value="&lt;div&gt;models&lt;/div&gt;" style="shape=folder;fontStyle=1;spacingTop=10;tabWidth=40;tabHeight=14;tabPosition=left;html=1;whiteSpace=wrap;" parent="1" vertex="1">
          <mxGeometry x="430" y="477" width="70" height="50" as="geometry" />
        </mxCell>
        <mxCell id="wvRjYrKWpuAkCQhh6v5w-6" value="&lt;div style=&quot;font-size: 8px;&quot;&gt;System&lt;/div&gt;" style="text;html=1;align=center;verticalAlign=middle;resizable=0;points=[];autosize=1;strokeColor=none;fillColor=none;fontStyle=1;fontSize=8;" parent="1" vertex="1">
          <mxGeometry x="276" y="442" width="50" height="20" as="geometry" />
        </mxCell>
        <mxCell id="5uKf5__XZ_AHMYdSUj16-6" style="edgeStyle=orthogonalEdgeStyle;rounded=0;orthogonalLoop=1;jettySize=auto;html=1;entryX=0.5;entryY=1;entryDx=0;entryDy=0;entryPerimeter=0;dashed=1;endArrow=open;endFill=0;" edge="1" parent="1" source="5uKf5__XZ_AHMYdSUj16-1" target="5uKf5__XZ_AHMYdSUj16-2">
          <mxGeometry relative="1" as="geometry" />
        </mxCell>
        <mxCell id="5uKf5__XZ_AHMYdSUj16-12" style="edgeStyle=orthogonalEdgeStyle;rounded=0;orthogonalLoop=1;jettySize=auto;html=1;entryX=1.014;entryY=0.593;entryDx=0;entryDy=0;entryPerimeter=0;exitX=0;exitY=0;exitDx=70;exitDy=32;exitPerimeter=0;dashed=1;endArrow=open;endFill=0;" edge="1" parent="1" source="5uKf5__XZ_AHMYdSUj16-1" target="wvRjYrKWpuAkCQhh6v5w-2">
          <mxGeometry relative="1" as="geometry" />
        </mxCell>
        <mxCell id="5uKf5__XZ_AHMYdSUj16-1" value="views" style="shape=folder;fontStyle=1;spacingTop=10;tabWidth=40;tabHeight=14;tabPosition=left;html=1;whiteSpace=wrap;" vertex="1" parent="1">
          <mxGeometry x="431" y="667" width="70" height="50" as="geometry" />
        </mxCell>
        <mxCell id="5uKf5__XZ_AHMYdSUj16-11" style="edgeStyle=orthogonalEdgeStyle;rounded=0;orthogonalLoop=1;jettySize=auto;html=1;entryX=0.5;entryY=1;entryDx=0;entryDy=0;entryPerimeter=0;endArrow=open;endFill=0;dashed=1;" edge="1" parent="1" source="5uKf5__XZ_AHMYdSUj16-2" target="wvRjYrKWpuAkCQhh6v5w-2">
          <mxGeometry relative="1" as="geometry" />
        </mxCell>
        <mxCell id="5uKf5__XZ_AHMYdSUj16-13" style="edgeStyle=orthogonalEdgeStyle;rounded=0;orthogonalLoop=1;jettySize=auto;html=1;entryX=0.756;entryY=0.291;entryDx=0;entryDy=0;entryPerimeter=0;exitX=0.75;exitY=1;exitDx=0;exitDy=0;exitPerimeter=0;endArrow=open;endFill=0;dashed=1;" edge="1" parent="1" source="5uKf5__XZ_AHMYdSUj16-2" target="5uKf5__XZ_AHMYdSUj16-1">
          <mxGeometry relative="1" as="geometry" />
        </mxCell>
        <mxCell id="5uKf5__XZ_AHMYdSUj16-14" style="edgeStyle=orthogonalEdgeStyle;rounded=0;orthogonalLoop=1;jettySize=auto;html=1;entryX=0.546;entryY=0.962;entryDx=0;entryDy=0;entryPerimeter=0;dashed=1;endArrow=open;endFill=0;" edge="1" parent="1" source="5uKf5__XZ_AHMYdSUj16-2" target="wvRjYrKWpuAkCQhh6v5w-1">
          <mxGeometry relative="1" as="geometry" />
        </mxCell>
        <mxCell id="5uKf5__XZ_AHMYdSUj16-2" value="controllers" style="shape=folder;fontStyle=1;spacingTop=10;tabWidth=40;tabHeight=14;tabPosition=left;html=1;whiteSpace=wrap;" vertex="1" parent="1">
          <mxGeometry x="431" y="577" width="70" height="50" as="geometry" />
        </mxCell>
      </root>
    </mxGraphModel>
  </diagram>
</mxfile>
